<svg width="128" height="148" viewBox="0 0 128 148" fill="none" xmlns="http://www.w3.org/2000/svg">
  <circle cx="64" cy="26" r="16" fill="#F8D2B7"/>
  <path d="M46 24C52 10 80 12 84 28C74 22 58 22 46 24Z" fill="#4C1D95"/>
  <path d="M38 58C38 44.7452 48.7452 34 62 34H66C79.2548 34 90 44.7452 90 58V92H38V58Z" fill="#A855F7"/>
  <path d="M52 92H76L82 134H46L52 92Z" fill="#6D28D9"/>
  <path d="M48 96L38 124" stroke="#1E293B" stroke-width="8" stroke-linecap="round"/>
  <path d="M80 96L90 124" stroke="#1E293B" stroke-width="8" stroke-linecap="round"/>
  <path d="M40 58L28 84" stroke="#A855F7" stroke-width="8" stroke-linecap="round"/>
  <path d="M88 58L100 84" stroke="#A855F7" stroke-width="8" stroke-linecap="round"/>
  <path d="M18 82C18 73.7157 24.7157 67 33 67H46L54 88H33C24.7157 88 18 81.2843 18 73Z" fill="#FFFFFF" stroke="#64748B" stroke-width="3"/>
  <circle cx="31" cy="78" r="4" fill="#F472B6"/>
  <circle cx="40" cy="74" r="4" fill="#FDE68A"/>
  <circle cx="42" cy="84" r="4" fill="#38BDF8"/>
</svg>
