<svg width="128" height="148" viewBox="0 0 128 148" fill="none" xmlns="http://www.w3.org/2000/svg">
  <circle cx="64" cy="26" r="16" fill="#F8D2B7"/>
  <path d="M46 24C52 12 78 12 84 28C70 22 58 22 46 24Z" fill="#14532D"/>
  <path d="M38 58C38 44.7452 48.7452 34 62 34H66C79.2548 34 90 44.7452 90 58V92H38V58Z" fill="#22C55E"/>
  <path d="M52 92H76L82 134H46L52 92Z" fill="#166534"/>
  <path d="M48 96L38 124" stroke="#1E293B" stroke-width="8" stroke-linecap="round"/>
  <path d="M80 96L90 124" stroke="#1E293B" stroke-width="8" stroke-linecap="round"/>
  <path d="M40 58L26 88" stroke="#22C55E" stroke-width="8" stroke-linecap="round"/>
  <path d="M88 58L100 84" stroke="#22C55E" stroke-width="8" stroke-linecap="round"/>
  <path d="M92 76L110 70L122 78L104 84L92 76Z" fill="#FEF3C7" stroke="#92400E" stroke-width="2.5"/>
  <path d="M104 84V102L122 94V78L104 84Z" fill="#F59E0B" stroke="#92400E" stroke-width="2.5"/>
</svg>
