<svg width="128" height="148" viewBox="0 0 128 148" fill="none" xmlns="http://www.w3.org/2000/svg">
  <circle cx="64" cy="26" r="16" fill="#F8D2B7"/>
  <path d="M46 24C50 12 78 10 84 28C72 20 58 20 46 24Z" fill="#7F1D1D"/>
  <path d="M38 58C38 44.7452 48.7452 34 62 34H66C79.2548 34 90 44.7452 90 58V92H38V58Z" fill="#F43F5E"/>
  <path d="M52 92H76L82 134H46L52 92Z" fill="#BE123C"/>
  <path d="M48 96L38 124" stroke="#1E293B" stroke-width="8" stroke-linecap="round"/>
  <path d="M80 96L90 124" stroke="#1E293B" stroke-width="8" stroke-linecap="round"/>
  <path d="M40 58L24 82" stroke="#F43F5E" stroke-width="8" stroke-linecap="round"/>
  <path d="M88 58L100 84" stroke="#F43F5E" stroke-width="8" stroke-linecap="round"/>
  <circle cx="102" cy="74" r="12" fill="#FFFBEB" stroke="#0F172A" stroke-width="3"/>
  <path d="M111 83L122 94" stroke="#0F172A" stroke-width="5" stroke-linecap="round"/>
</svg>
