<svg width="320" height="200" viewBox="0 0 320 200" fill="none" xmlns="http://www.w3.org/2000/svg">
  <defs>
    <linearGradient id="pack-floor" x1="64" y1="88" x2="258" y2="164" gradientUnits="userSpaceOnUse">
      <stop stop-color="#D1FAE5"/>
      <stop offset="1" stop-color="#6EE7B7"/>
    </linearGradient>
    <linearGradient id="pack-shelf" x1="102" y1="48" x2="220" y2="132" gradientUnits="userSpaceOnUse">
      <stop stop-color="#ECFCCB"/>
      <stop offset="1" stop-color="#A7F3D0"/>
    </linearGradient>
  </defs>
  <path d="M62 118L160 78L258 118L160 164L62 118Z" fill="url(#pack-floor)" stroke="#10B981" stroke-opacity=".36" stroke-width="3"/>
  <path d="M106 70L188 42L222 62L138 94L106 70Z" fill="url(#pack-shelf)" stroke="#4B5563" stroke-width="3"/>
  <path d="M138 94V144L222 110V62L138 94Z" fill="#A7F3D0" stroke="#4B5563" stroke-width="3"/>
  <path d="M106 70V120L138 144V94L106 70Z" fill="#D1FAE5" stroke="#4B5563" stroke-width="3"/>
  <path d="M120 86L152 74L170 84L138 98L120 86Z" fill="#FEF3C7" stroke="#92400E" stroke-width="2.5"/>
  <path d="M138 98V120L170 108V84L138 98Z" fill="#F59E0B" stroke="#92400E" stroke-width="2.5"/>
  <path d="M176 92L200 84L216 92L192 102L176 92Z" fill="#FFFFFF" stroke="#4B5563" stroke-width="2"/>
  <path d="M192 102V116L216 108V92L192 102Z" fill="#D1FAE5" stroke="#4B5563" stroke-width="2"/>
  <path d="M86 120L112 110L126 120L100 130L86 120Z" fill="#F8FAFC" stroke="#4B5563" stroke-width="2"/>
  <path d="M100 130V142L126 132V120L100 130Z" fill="#BFDBFE" stroke="#4B5563" stroke-width="2"/>
</svg>
