<svg width="320" height="200" viewBox="0 0 320 200" fill="none" xmlns="http://www.w3.org/2000/svg">
  <defs>
    <linearGradient id="quote-floor" x1="64" y1="88" x2="258" y2="164" gradientUnits="userSpaceOnUse">
      <stop stop-color="#E0E7FF"/>
      <stop offset="1" stop-color="#C4B5FD"/>
    </linearGradient>
    <linearGradient id="quote-top" x1="102" y1="58" x2="218" y2="108" gradientUnits="userSpaceOnUse">
      <stop stop-color="#FFFFFF"/>
      <stop offset="1" stop-color="#DDD6FE"/>
    </linearGradient>
  </defs>
  <path d="M62 118L160 78L260 118L160 164L62 118Z" fill="url(#quote-floor)" stroke="#7C3AED" stroke-opacity=".35" stroke-width="3"/>
  <path d="M102 72L180 44L222 66L144 96L102 72Z" fill="url(#quote-top)" stroke="#64748B" stroke-width="3"/>
  <path d="M144 96V138L222 110V66L144 96Z" fill="#C4B5FD" stroke="#64748B" stroke-width="3"/>
  <path d="M102 72V114L144 138V96L102 72Z" fill="#E9D5FF" stroke="#64748B" stroke-width="3"/>
  <path d="M120 80L154 68L182 84L146 96L120 80Z" fill="#F8FAFC" stroke="#64748B" stroke-width="2"/>
  <path d="M120 80V102L146 118V96L120 80Z" fill="#E2E8F0" stroke="#64748B" stroke-width="2"/>
  <path d="M146 96V118L182 106V84L146 96Z" fill="#E9D5FF" stroke="#64748B" stroke-width="2"/>
  <rect x="192" y="63" width="26" height="34" rx="6" fill="#0F172A"/>
  <rect x="196" y="68" width="18" height="6" rx="2" fill="#FDE68A"/>
  <rect x="196" y="78" width="5" height="5" rx="1.5" fill="#E2E8F0"/>
  <rect x="204" y="78" width="5" height="5" rx="1.5" fill="#E2E8F0"/>
  <rect x="196" y="86" width="5" height="5" rx="1.5" fill="#E2E8F0"/>
  <rect x="204" y="86" width="5" height="5" rx="1.5" fill="#E2E8F0"/>
  <path d="M80 120L112 108L134 120L102 132L80 120Z" fill="#FCD34D" stroke="#92400E" stroke-width="2.5"/>
  <path d="M102 132V146L134 134V120L102 132Z" fill="#F59E0B" stroke="#92400E" stroke-width="2.5"/>
</svg>
