<svg width="320" height="200" viewBox="0 0 320 200" fill="none" xmlns="http://www.w3.org/2000/svg">
  <defs>
    <linearGradient id="review-floor" x1="64" y1="88" x2="258" y2="164" gradientUnits="userSpaceOnUse">
      <stop stop-color="#FCE7F3"/>
      <stop offset="1" stop-color="#FBCFE8"/>
    </linearGradient>
  </defs>
  <path d="M60 118L160 78L260 118L160 164L60 118Z" fill="url(#review-floor)" stroke="#EC4899" stroke-opacity=".34" stroke-width="3"/>
  <path d="M104 80L186 48L220 68L138 100L104 80Z" fill="#FFF1F2" stroke="#64748B" stroke-width="3"/>
  <path d="M138 100V144L220 112V68L138 100Z" fill="#FBCFE8" stroke="#64748B" stroke-width="3"/>
  <path d="M104 80V124L138 144V100L104 80Z" fill="#FCE7F3" stroke="#64748B" stroke-width="3"/>
  <rect x="124" y="60" width="28" height="24" rx="6" fill="#0F172A"/>
  <rect x="130" y="66" width="16" height="12" rx="4" fill="#F472B6"/>
  <circle cx="194" cy="74" r="16" fill="#FFFBEB" stroke="#0F172A" stroke-width="4"/>
  <path d="M206 86L218 98" stroke="#0F172A" stroke-width="5" stroke-linecap="round"/>
  <rect x="176" y="90" width="28" height="18" rx="5" fill="#FFFFFF" stroke="#64748B" stroke-width="2"/>
  <path d="M86 120L110 110L126 120L102 130L86 120Z" fill="#FFFFFF" stroke="#64748B" stroke-width="2"/>
  <path d="M102 130V142L126 132V120L102 130Z" fill="#E2E8F0" stroke="#64748B" stroke-width="2"/>
</svg>
